<?xml version="1.0" standalone="no"?>
<!DOCTYPE svg PUBLIC "-//W3C//DTD SVG 20010904//EN"
 "http://www.w3.org/TR/2001/REC-SVG-20010904/DTD/svg10.dtd">
<svg version="1.0" xmlns="http://www.w3.org/2000/svg"
 width="1024.000000pt" height="1024.000000pt" viewBox="0 0 1024.000000 1024.000000"
 preserveAspectRatio="xMidYMid meet">

<g transform="translate(0.000000,1024.000000) scale(0.100000,-0.100000)"
fill="#000000" stroke="none">
<path d="M0 5120 l0 -5120 5120 0 5120 0 0 5120 0 5120 -5120 0 -5120 0 0
-5120z m5147 3938 c11 -18 90 -150 175 -293 85 -143 227 -379 315 -525 88
-146 179 -299 203 -340 23 -41 52 -90 63 -109 18 -31 13 -28 -62 31 -140 111
-368 214 -520 234 -29 4 -58 13 -65 20 -8 7 -39 54 -71 104 -31 49 -61 90 -65
90 -5 0 -37 -45 -71 -100 -41 -65 -70 -102 -83 -105 -240 -46 -425 -127 -569
-247 -32 -26 -60 -48 -63 -48 -3 0 3 15 14 33 11 17 56 93 99 167 241 412 667
1120 673 1120 5 0 17 -15 27 -32z m173 -1124 c117 -22 259 -75 346 -129 100
-62 227 -190 220 -220 -3 -12 1 -30 9 -41 8 -10 15 -14 15 -8 0 5 -5 15 -12
22 -6 6 -9 15 -5 18 7 7 56 -46 56 -61 0 -5 -6 -1 -14 9 -14 19 -15 18 -24 -5
-10 -26 4 -53 22 -42 6 4 7 1 3 -6 -13 -20 -45 16 -39 42 3 16 2 18 -5 8 -7
-9 -12 -10 -16 -2 -4 6 -2 11 5 11 8 0 7 7 -3 23 -8 12 -14 33 -13 46 2 22 1
22 -11 6 -11 -14 -10 -22 4 -44 9 -14 -19 7 -62 47 -43 41 -79 72 -80 70 -1
-2 -7 -10 -14 -19 -10 -13 -9 -19 5 -30 16 -13 17 -12 5 3 -21 26 3 30 28 3
25 -27 19 -54 -8 -33 -15 12 -16 11 -3 -5 10 -12 17 -14 26 -7 10 8 18 2 34
-23 12 -19 21 -38 21 -43 0 -5 -10 5 -21 23 -12 20 -26 30 -35 26 -19 -7 -18
-23 1 -23 8 0 15 -7 15 -15 0 -11 -11 -6 -35 16 -19 17 -33 36 -32 42 1 6 -7
11 -18 12 -11 0 -20 6 -20 13 0 6 -2 11 -5 10 -3 -2 -18 7 -34 20 -45 34 -51
26 -14 -18 45 -52 141 -237 134 -256 -3 -8 -2 -13 3 -10 11 7 34 -71 25 -86
-4 -6 -3 -8 4 -4 6 4 17 -24 30 -76 11 -46 18 -85 16 -87 -2 -2 -40 20 -85 49
-90 58 -183 104 -200 98 -6 -2 20 -29 57 -59 38 -31 68 -61 67 -68 -2 -6 3
-10 10 -8 6 1 12 -7 13 -18 2 -33 4 -36 15 -29 8 4 7 9 -2 15 -8 5 -9 9 -3 9
5 0 26 -17 45 -37 18 -20 27 -32 18 -25 -9 6 -19 8 -23 4 -4 -4 -6 -2 -4 3 2
6 -2 10 -7 10 -6 0 -9 -4 -7 -10 2 -5 -2 -4 -9 3 -7 6 -21 12 -30 12 -22 0
-32 -39 -12 -47 13 -5 13 -7 -1 -15 -15 -8 -14 -11 6 -29 l23 -20 -28 17 c-21
13 -25 19 -16 30 14 17 -2 18 -20 2 -11 -11 -12 -10 -6 1 6 11 4 13 -9 8 -11
-5 -15 -3 -10 5 5 8 1 9 -12 4 -14 -5 -16 -4 -8 4 9 9 18 9 35 0 23 -11 23
-10 4 5 -11 8 -26 13 -35 9 -22 -9 -25 -9 -135 30 -137 47 -209 59 -350 58
-98 0 -138 -5 -220 -27 -55 -15 -110 -28 -122 -29 -12 0 -20 -3 -18 -5 2 -2
-35 -24 -83 -48 -48 -25 -95 -52 -105 -61 -16 -14 -20 -14 -28 -2 -8 13 -9 13
-7 -1 2 -9 -22 -39 -54 -68 -32 -29 -90 -93 -129 -142 -89 -111 -109 -106 -47
11 39 76 68 110 68 80 0 -6 -5 -8 -12 -4 -8 5 -9 2 -5 -10 4 -9 3 -15 -2 -12
-5 3 -11 -1 -14 -8 -4 -11 0 -13 15 -11 11 3 21 6 22 7 0 2 11 15 24 29 22 25
22 66 -1 52 -6 -4 -7 -1 -2 7 6 10 4 12 -8 7 -11 -4 -8 5 11 33 15 22 31 39
36 40 5 0 1 -9 -10 -21 -15 -16 -16 -22 -5 -29 8 -4 12 -17 8 -29 -3 -12 0
-24 5 -28 7 -3 8 -1 4 5 -4 7 -3 12 3 12 13 0 57 44 71 70 7 14 7 20 0 20 -5
0 -10 -5 -10 -11 0 -6 -14 -24 -31 -39 -24 -23 -29 -25 -24 -9 4 11 2 19 -5
19 -6 0 -8 5 -4 11 5 8 9 8 14 -1 5 -9 9 -9 14 -1 4 6 3 11 -2 11 -16 0 -23
30 -11 51 5 11 15 16 21 13 7 -4 8 -3 4 4 -9 15 112 141 190 199 35 26 64 50
64 54 0 16 -145 -54 -233 -112 -32 -22 -60 -39 -61 -39 -5 0 15 103 31 160 38
135 129 318 191 383 14 15 21 27 14 27 -17 0 -125 -93 -172 -149 -24 -28 -46
-48 -51 -45 -4 2 -13 -6 -20 -18 -7 -13 -11 -23 -9 -23 2 0 -8 -18 -23 -40
-15 -22 -27 -35 -27 -29 0 5 5 15 11 21 6 6 11 17 13 24 5 31 18 59 27 59 5 0
8 3 7 8 -4 14 13 52 23 52 6 0 8 4 4 9 -3 5 17 40 45 76 41 55 45 63 22 46
-72 -51 -161 -161 -247 -306 -15 -24 -24 -33 -25 -22 0 9 5 17 11 17 5 0 7 5
3 11 -3 6 -1 15 6 19 8 5 7 9 -4 13 -11 4 -16 1 -16 -12 0 -21 -9 -33 -20 -26
-5 3 1 23 11 45 11 23 24 38 29 35 6 -4 7 2 3 12 -6 16 -5 16 10 5 8 -8 13
-20 10 -28 -8 -22 5 -17 18 7 7 13 7 19 1 15 -6 -4 -15 1 -20 11 -11 18 13 67
28 58 4 -3 7 1 6 8 -2 18 17 20 20 1 1 -9 -6 -18 -17 -21 -10 -3 -19 -12 -19
-20 0 -8 -5 -11 -12 -7 -7 4 -9 3 -5 -1 14 -16 36 -14 30 3 -4 9 -2 13 4 9 10
-6 28 19 25 35 -1 4 4 5 12 2 7 -3 16 2 20 12 6 15 4 15 -11 3 -15 -12 -16
-12 -10 4 4 10 3 16 -2 12 -5 -3 -12 -1 -15 4 -8 12 105 133 174 186 119 91
265 154 418 180 109 18 294 18 392 -1z m666 -477 c11 -24 11 -27 1 -15 -8 10
-18 14 -22 10 -5 -4 -5 -1 -1 6 4 7 2 20 -6 29 -9 12 -10 15 0 9 6 -4 19 -22
28 -39z m-26 -47 c6 -11 8 -20 6 -20 -3 0 -10 9 -16 20 -6 11 -8 20 -6 20 3 0
10 -9 16 -20z m-1916 -117 c-19 -53 -69 -204 -110 -336 -42 -133 -95 -291
-119 -352 -100 -259 -241 -516 -468 -853 -144 -213 -160 -247 -165 -342 -3
-61 1 -90 20 -148 l24 -72 -65 -21 c-256 -84 -493 -206 -642 -330 -25 -21 -50
-35 -55 -31 -5 4 -6 3 -1 -2 9 -12 -23 -47 -36 -39 -5 3 -7 2 -4 -4 3 -5 -8
-22 -24 -37 l-30 -28 12 26 c7 14 16 23 21 20 5 -3 9 0 7 7 -3 26 1 40 10 35
5 -3 8 2 7 11 0 10 4 18 11 18 6 0 15 4 20 9 5 5 3 6 -4 2 -7 -4 -13 -4 -13 0
0 8 279 478 447 752 l125 203 -463 772 c-254 425 -470 787 -481 805 l-20 32
1016 0 1015 0 -35 -97z m4146 92 c0 -3 -52 -92 -117 -198 -105 -174 -308 -514
-560 -942 -52 -88 -135 -226 -184 -306 -49 -80 -89 -152 -89 -159 0 -7 49 -92
109 -189 59 -97 152 -250 206 -341 54 -91 108 -181 120 -200 19 -30 187 -315
203 -345 3 -5 -26 21 -65 59 -170 163 -372 278 -681 386 l-119 42 24 64 c32
89 32 197 0 275 -13 31 -64 114 -113 185 -163 235 -274 417 -363 594 -124 248
-131 268 -388 1063 -5 16 47 17 1006 17 556 0 1011 -2 1011 -5z m-2354 -443
c25 -37 37 -59 25 -48 -19 17 -21 18 -27 2 -4 -11 0 -24 11 -34 17 -16 17 -16
12 1 -4 11 -3 16 3 12 6 -3 7 -17 4 -31 -4 -14 -2 -24 5 -24 6 0 11 -6 11 -13
0 -8 7 -14 15 -14 10 0 13 6 9 19 -10 33 5 19 26 -24 13 -26 15 -35 5 -24 -17
22 -45 30 -45 13 0 -7 -31 21 -70 62 -71 74 -78 85 -60 96 6 3 8 19 5 36 -3
16 -4 29 -1 29 2 0 15 -18 30 -40 14 -22 22 -40 17 -40 -17 0 -6 -62 13 -76
11 -8 22 -11 25 -9 2 3 -5 12 -17 21 -21 14 -21 41 1 55 5 4 -8 30 -28 59 -20
29 -32 49 -26 46 5 -4 31 -37 57 -74z m-1466 -82 c0 -5 -5 -10 -11 -10 -5 0
-7 5 -4 10 3 6 8 10 11 10 2 0 4 -4 4 -10z m857 -192 c-1 -49 -5 -88 -9 -88
-5 0 -7 64 -7 143 1 117 3 132 10 87 5 -30 8 -94 6 -142z m-200 -30 c-1 -40
-3 -8 -3 72 0 80 2 112 3 73 2 -40 2 -106 0 -145z m892 102 c11 -24 11 -24 -3
-6 -9 11 -16 24 -16 30 0 12 5 7 19 -24z m-1249 16 c0 -2 -9 -6 -20 -9 -11 -3
-18 -1 -14 4 5 9 34 13 34 5z m129 -7 c71 -16 143 -50 137 -65 -3 -8 0 -11 8
-8 7 3 21 -5 31 -16 17 -19 17 -22 3 -36 -13 -14 -20 -13 -61 7 -25 12 -43 27
-40 32 3 6 1 7 -5 3 -6 -3 -44 5 -86 19 -41 14 -85 25 -98 26 l-23 0 23 10
c13 5 29 6 34 2 7 -3 8 -1 4 6 -6 8 0 10 21 6 l28 -5 -30 14 c-37 19 -13 21
54 5z m807 2 c-3 -4 -18 -7 -33 -4 l-28 3 25 -10 c14 -6 38 -9 53 -6 17 4 26
2 22 -4 -3 -6 -19 -10 -35 -10 -47 0 -131 -21 -189 -47 -30 -13 -61 -21 -68
-18 -8 2 -12 1 -9 -4 8 -12 -50 -35 -70 -27 -18 7 -14 42 4 39 7 -2 11 2 10 9
-4 15 74 59 132 74 52 15 194 18 186 5z m-956 -25 c8 -2 -14 -4 -50 -5 -36 0
-59 3 -53 7 12 7 65 6 103 -2z m460 -29 c14 -4 37 0 52 7 25 13 26 13 32 -23
3 -20 6 -53 6 -73 l0 -38 -80 0 -80 0 0 28 c0 15 3 51 7 80 5 47 8 51 22 39 9
-8 27 -17 41 -20z m-856 -63 c3 -8 2 -12 -4 -9 -6 3 -10 10 -10 16 0 14 7 11
14 -7z m511 -9 l40 -14 -55 7 c-30 4 -68 6 -83 6 -19 -1 -24 2 -15 7 19 12 67
10 113 -6z m870 4 c-11 -4 -45 -8 -76 -8 -66 -1 -147 -23 -209 -57 -25 -14
-36 -18 -25 -9 33 27 91 54 148 69 55 15 198 19 162 5z m-1415 -58 c-28 -56
-35 -52 -8 4 12 24 23 43 26 41 2 -2 -6 -22 -18 -45z m640 19 c21 -11 41 -24
45 -30 3 -5 -17 2 -45 16 -27 14 -50 27 -50 30 0 7 10 4 50 -16z m857 5 c-1
-5 4 -9 11 -7 6 1 12 -3 12 -10 0 -6 3 -8 7 -5 11 12 42 -24 36 -41 -5 -11 -3
-13 7 -7 9 5 11 4 6 -4 -10 -15 -29 -3 -22 14 3 8 -3 19 -11 27 -15 11 -16 11
-9 -7 6 -17 4 -16 -21 5 -15 14 -31 29 -34 33 -3 5 -9 8 -13 7 -4 -1 -12 0
-19 3 -6 2 2 4 20 3 17 0 31 -5 30 -11z m112 -127 c20 -40 20 -41 2 -18 -18
22 -34 60 -26 60 2 0 13 -19 24 -42z m-655 -14 c4 -11 -7 -14 -55 -14 -40 0
-58 4 -54 11 18 28 99 30 109 3z m-19 -44 c-3 -5 0 -10 7 -10 32 -1 -15 -17
-52 -18 -38 -2 -52 12 -33 31 11 11 85 8 78 -3z m11 -65 c13 -19 11 -20 -36
-17 -33 3 -50 8 -50 17 0 30 66 30 86 0z m-241 -35 c-10 -16 -76 -41 -88 -33
-6 3 -7 1 -3 -5 17 -27 -176 -27 -229 0 -20 11 -3 13 113 13 106 0 145 4 172
17 43 20 42 20 35 8z m568 -29 c64 -5 122 -4 136 1 13 5 26 6 28 4 3 -3 -21
-12 -53 -22 -79 -23 -173 -15 -241 20 -60 30 -70 42 -17 20 19 -8 86 -19 147
-23z m-345 16 c12 -14 75 -185 86 -232 l7 -30 -20 31 c-11 18 -25 36 -33 40
-15 10 -127 22 -125 14 1 -3 -11 -17 -26 -32 -15 -15 -27 -25 -27 -23 0 24 75
223 88 233 20 15 37 15 50 -1z m-226 -34 c-6 -2 -9 -9 -6 -14 8 -14 -14 -38
-55 -59 -28 -14 -222 -71 -286 -84 -5 -1 -16 -5 -24 -10 -8 -6 -20 -1 -35 15
l-21 23 22 -18 c23 -19 49 -14 36 7 -18 29 -9 35 58 42 38 4 69 10 69 14 0 3
-34 16 -75 29 -44 14 -73 28 -69 34 4 6 9 6 13 2 11 -16 271 -9 321 8 41 15
82 23 52 11z m498 -20 c43 -10 94 -13 148 -10 51 3 85 1 89 -6 3 -6 1 -7 -5
-3 -6 3 -30 1 -54 -5 -24 -6 -61 -11 -83 -11 -28 0 -33 -2 -19 -6 12 -4 20
-14 19 -23 -2 -12 3 -15 18 -11 20 5 20 6 1 14 -15 6 -13 7 6 2 35 -8 129 -23
167 -26 17 -1 30 -5 27 -10 -3 -4 -12 -4 -21 -1 -12 5 -14 3 -8 -8 8 -12 6
-12 -8 0 -10 8 -27 11 -43 7 -22 -6 -24 -9 -12 -23 11 -14 10 -15 -7 -10 -11
4 -60 18 -108 32 -143 41 -184 63 -209 109 -9 17 -8 18 13 11 13 -4 53 -14 89
-22z m-1650 -62 c-29 -42 -34 -39 -8 4 11 20 23 34 25 31 3 -3 -5 -19 -17 -35z
m2736 -33 c13 -27 22 -48 20 -48 -6 0 -66 108 -66 117 0 11 17 -14 46 -69z
m-881 52 c-11 -5 -33 -8 -50 -8 -29 1 -29 1 5 8 49 10 69 10 45 0z m112 -77
c-22 -22 -29 -25 -39 -15 -11 11 -10 12 3 7 9 -3 23 3 34 15 10 11 21 20 24
20 3 0 -7 -12 -22 -27z m62 -30 c-17 -32 -38 -63 -46 -70 -9 -7 -12 -17 -8
-25 6 -10 5 -10 -5 -1 -10 9 -8 18 14 43 30 36 34 55 10 46 -14 -5 -15 -4 -4
9 7 9 19 14 27 11 8 -4 11 -1 8 5 -6 8 20 37 33 39 2 0 -11 -26 -29 -57z
m-2085 -9 c-15 -27 -31 -54 -35 -60 -5 -6 -5 -15 -1 -19 4 -5 1 -5 -5 -1 -8 4
-13 1 -13 -7 0 -16 -30 -78 -30 -62 0 11 -50 -72 -50 -83 0 -4 11 10 25 31 38
54 42 49 17 -23 -3 -8 10 -1 27 15 l33 30 -32 -54 c-17 -30 -78 -123 -134
-205 -56 -83 -110 -172 -120 -197 -20 -52 -25 -123 -12 -183 7 -36 6 -38 -8
-23 -9 9 -16 20 -15 24 1 4 -3 19 -9 33 -7 17 -11 20 -11 8 -1 -9 3 -19 9 -23
5 -3 7 -12 4 -20 -3 -7 2 -25 11 -39 10 -14 13 -26 8 -26 -17 0 -63 105 -69
156 -4 33 -1 69 10 105 15 52 35 85 237 384 51 77 99 150 106 162 27 52 77
132 81 129 1 -2 -9 -26 -24 -52z m775 9 c2 -1 -2 -9 -9 -18 -10 -12 -10 -15 0
-15 8 0 10 -3 7 -7 -4 -3 -1 -13 7 -22 7 -9 16 -29 20 -46 6 -30 6 -30 -12 5
-11 19 -31 55 -45 79 -29 50 -26 71 6 44 12 -10 24 -19 26 -20z m479 6 c3 -25
-2 -29 -59 -48 -34 -11 -66 -18 -72 -14 -5 3 -7 2 -4 -4 7 -11 -80 -56 -93
-48 -4 3 -24 7 -43 9 -26 4 -39 0 -48 -12 -11 -14 -11 -15 1 -4 19 16 35 15
21 -2 -9 -10 -8 -15 3 -19 10 -4 13 -1 10 7 -3 7 2 16 10 19 17 7 18 -16 3
-40 -11 -18 -22 -16 -43 5 -16 15 -17 15 -12 0 7 -17 -17 -46 -29 -34 -3 3
-17 -1 -30 -9 -13 -9 -23 -11 -23 -5 0 5 5 10 10 10 6 0 10 5 10 10 0 6 -7 10
-15 10 -8 0 -15 7 -15 15 0 8 -5 15 -11 15 -5 0 -8 4 -4 9 3 6 -4 26 -15 47
-12 20 -18 39 -15 42 7 8 34 -29 35 -48 1 -38 15 -33 15 5 0 24 -3 39 -6 34
-3 -5 -16 3 -30 17 -22 24 -22 26 -3 16 15 -8 32 -8 60 0 69 19 267 46 329 45
57 -2 60 -3 63 -28z m496 20 l31 -1 -30 -13 c-16 -8 -23 -14 -15 -15 8 0 25
-17 38 -36 24 -38 28 -54 12 -54 -5 0 -10 5 -10 11 0 13 -25 39 -39 39 -5 0 3
-14 19 -31 15 -17 33 -28 39 -24 7 3 10 1 9 -6 -2 -7 3 -13 10 -14 7 0 16 -5
20 -12 5 -8 12 -7 27 4 16 12 17 14 3 11 -9 -2 -18 1 -20 6 -2 5 7 10 18 11
23 2 26 -14 7 -37 -10 -11 -1 -24 43 -66 30 -29 54 -47 54 -40 0 6 3 9 6 5 3
-3 3 -11 -1 -17 -4 -7 -28 9 -64 43 -52 49 -160 127 -186 134 -60 14 -155 59
-160 74 -12 36 4 42 83 35 41 -3 89 -6 106 -7z m179 -29 c17 -7 13 -8 -15 -4
-62 10 -78 -1 -78 -53 0 -51 -19 -56 -32 -7 -4 16 -16 35 -25 42 -17 13 -17
13 2 11 11 -1 27 1 35 4 8 3 22 8 30 11 8 3 -10 4 -40 1 -39 -3 -49 -2 -35 5
22 11 124 4 158 -10z m-459 -21 c22 -18 26 -28 26 -76 l0 -56 -37 7 c-21 3
-59 6 -84 6 -46 0 -47 1 -53 36 -16 81 81 136 148 83z m1376 -21 c0 -5 -6 -3
-13 4 -8 7 -14 19 -14 26 0 11 4 10 14 -4 7 -10 13 -22 13 -26z m-843 26 c-3
-3 -12 -4 -19 -1 -8 3 -5 6 6 6 11 1 17 -2 13 -5z m-2007 -54 c-6 -11 -13 -20
-16 -20 -2 0 0 9 6 20 6 11 13 20 16 20 2 0 0 -9 -6 -20z m2880 -10 c6 -11 8
-20 6 -20 -3 0 -10 9 -16 20 -6 11 -8 20 -6 20 3 0 10 -9 16 -20z m-880 1 c0
-6 -4 -13 -10 -16 -5 -3 -10 1 -10 9 0 9 5 16 10 16 6 0 10 -4 10 -9z m-446
-80 c-1 -17 2 -31 8 -31 5 0 6 10 3 23 -4 12 11 -6 34 -41 23 -35 38 -68 35
-74 -4 -6 -3 -8 3 -5 15 9 30 -11 122 -163 45 -74 88 -139 95 -144 10 -7 3
-17 -29 -42 l-43 -32 -373 -1 -374 0 -33 30 c-18 16 -30 34 -27 39 4 6 11 7
17 4 6 -4 8 -2 4 4 -7 11 56 119 180 310 41 62 81 126 89 143 19 37 35 37 35
2 -1 -33 -82 -167 -95 -156 -4 5 -5 2 -1 -4 4 -7 -22 -63 -62 -130 -38 -65
-79 -138 -91 -161 -22 -43 -22 -72 -2 -72 6 0 8 7 5 15 -5 11 -2 13 12 8 10
-4 15 -2 11 4 -4 6 10 10 33 11 23 1 40 -3 40 -9 0 -6 -9 -8 -20 -4 -11 3 -20
2 -20 -2 0 -14 147 -10 162 5 9 9 9 12 0 12 -14 0 -18 265 -4 273 4 3 6 -47 5
-110 -1 -116 6 -150 12 -51 6 117 9 118 14 9 l6 -114 40 0 40 0 3 181 c1 100
5 182 8 182 3 0 14 -5 25 -10 18 -10 19 -23 19 -186 0 -157 2 -175 16 -170 9
3 27 6 40 6 l24 0 0 148 1 147 24 -28 c24 -27 25 -34 25 -153 l0 -124 36 0
c22 0 41 -6 48 -16 12 -16 51 -9 40 7 -9 15 60 10 84 -7 19 -13 22 -13 22 -1
0 15 -78 162 -110 207 -10 14 -50 78 -89 143 -55 91 -71 126 -71 155 1 32 2
35 13 20 7 -9 12 -30 11 -47z m-529 39 c-3 -5 -11 -10 -16 -10 -6 0 -7 5 -4
10 3 6 11 10 16 10 6 0 7 -4 4 -10z m-1071 -35 c-4 -8 -8 -15 -10 -15 -2 0 -4
7 -4 15 0 8 4 15 10 15 5 0 7 -7 4 -15z m890 -55 c3 -14 -3 -7 -13 15 -11 22
-20 45 -20 50 0 15 26 -37 33 -65z m2067 53 c13 -16 12 -17 -3 -4 -10 7 -18
15 -18 17 0 8 8 3 21 -13z m-1951 -6 c0 -2 -16 -19 -37 -38 -37 -35 -37 -21 1
18 18 19 36 29 36 20z m-70 -37 c0 -5 -5 -10 -11 -10 -5 0 -7 5 -4 10 3 6 8
10 11 10 2 0 4 -4 4 -10z m844 -59 c-2 -2 5 -11 16 -20 10 -9 33 -43 51 -76
24 -44 27 -55 12 -40 -11 11 -19 23 -16 28 2 4 -1 7 -7 7 -6 0 -8 5 -5 10 3 6
1 10 -4 10 -6 0 -11 7 -11 15 0 8 -6 14 -12 13 -7 -2 -13 4 -13 12 0 21 -28
49 -39 39 -6 -6 -3 -14 9 -22 10 -8 15 -19 11 -26 -4 -6 0 -14 8 -17 9 -3 13
-10 10 -15 -3 -5 -1 -9 4 -9 5 0 12 -9 15 -20 8 -32 -8 -15 -47 51 -38 63 -42
74 -27 64 19 -11 20 13 1 30 -11 10 -20 15 -20 11 0 -4 -5 -4 -10 -1 -6 4 -8
11 -4 16 3 5 23 -5 43 -23 21 -18 36 -35 35 -37z m1241 21 c-2 -2 7 -16 21
-31 25 -29 124 -170 124 -177 0 -3 -6 -2 -12 2 -8 4 -10 3 -5 -2 5 -5 14 -9
20 -9 7 0 11 -8 11 -18 -1 -9 2 -15 6 -12 10 6 52 -59 74 -115 23 -58 23 -143
0 -200 -15 -38 -72 -140 -78 -140 -1 0 -2 9 -2 19 0 11 3 18 7 15 8 -5 22 27
14 34 -3 3 -5 0 -5 -6 0 -7 -4 -12 -9 -12 -5 0 -2 18 5 41 19 53 27 153 15
176 -5 10 -17 37 -26 61 -10 23 -21 42 -25 42 -4 0 -12 11 -18 25 -7 14 -31
51 -53 82 -38 50 -41 58 -29 77 12 19 11 20 -3 8 -13 -11 -19 -8 -41 21 -14
19 -26 40 -25 48 0 11 2 11 6 1 3 -7 16 -25 29 -39 18 -20 24 -22 24 -9 0 9
-4 16 -8 16 -5 0 -7 13 -4 29 3 20 -2 35 -17 50 -12 12 -16 21 -11 21 6 0 3
12 -6 28 l-16 27 20 -25 c11 -14 19 -26 17 -28z m-2101 -14 c-3 -4 -9 -8 -15
-8 -5 0 -9 4 -9 8 0 5 7 9 15 9 8 0 12 -4 9 -9z m251 -35 c-10 -14 -26 -41
-37 -60 -22 -37 -35 -46 -17 -10 23 43 59 97 65 97 4 0 -2 -12 -11 -27z m1855
-21 c0 -15 -2 -15 -10 -2 -13 20 -13 33 0 25 6 -3 10 -14 10 -23z m-1291 -229
c-1 -4 1 -16 6 -26 8 -19 -12 -77 -26 -77 -5 0 -9 2 -9 4 0 2 -3 12 -6 20 -5
12 -2 15 10 10 9 -3 17 -1 17 5 1 6 2 17 3 24 1 6 -2 17 -7 24 -5 7 -6 17 -3
22 4 5 2 12 -3 16 -6 3 -12 -13 -14 -37 -3 -37 -4 -34 -5 16 l-2 59 20 -26
c11 -14 20 -29 19 -34z m-523 28 c0 -11 -4 -17 -9 -14 -5 3 -7 0 -5 -8 3 -8 1
-22 -4 -33 -7 -13 -6 -21 3 -28 11 -8 11 -9 -1 -5 -21 5 -23 29 -6 71 17 41
22 44 22 17z m94 -120 c0 -9 -78 -6 -88 3 -3 3 16 6 41 6 26 0 47 -4 47 -9z
m645 -14 c16 -13 15 -14 -14 -9 -17 2 -37 0 -44 -4 -7 -5 -4 -1 6 9 23 21 28
21 52 4z m-923 -14 c10 -9 18 -21 18 -27 0 -6 -7 0 -16 13 -14 19 -23 22 -51
18 -20 -4 -31 -2 -28 4 10 15 57 10 77 -8z m-12 -38 c0 -18 -5 -25 -19 -25
-11 0 -23 5 -26 10 -11 18 3 40 25 40 15 0 20 -7 20 -25z m929 16 c19 -12 6
-41 -19 -41 -25 0 -38 29 -19 41 8 5 16 9 19 9 3 0 11 -4 19 -9z m-908 -54
c-10 -9 -11 -8 -5 6 3 10 9 15 12 12 3 -3 0 -11 -7 -18z m792 16 c3 -5 -163
-8 -369 -8 -206 0 -374 3 -374 8 0 4 166 7 369 7 204 0 372 -3 374 -7z m58
-10 c13 -16 12 -17 -3 -4 -10 7 -18 15 -18 17 0 8 8 3 21 -13z m-2150 -188 c3
2 6 -5 6 -17 1 -11 1 -19 0 -17 -1 2 -11 15 -22 29 -12 15 -14 20 -4 12 9 -6
18 -10 20 -7z m-85 -117 c10 -13 12 -18 5 -11 -10 9 -20 9 -35 2 -21 -10 -21
-10 -1 7 18 15 18 16 2 10 -10 -3 -25 -6 -33 -6 -9 0 -12 -5 -8 -12 5 -7 2 -9
-8 -6 -8 4 -15 0 -15 -7 0 -10 10 -12 31 -9 17 3 -7 -10 -54 -29 -143 -57
-171 -70 -287 -130 -118 -61 -144 -84 -68 -62 48 15 160 31 270 39 81 6 88 10
-121 -58 -187 -61 -329 -137 -478 -260 -38 -31 -74 -56 -80 -56 -7 0 -7 3 -1
8 6 4 11 14 13 22 2 8 8 17 13 18 5 2 6 8 3 13 -3 6 1 18 9 27 8 9 18 28 22
42 l8 25 -24 -20 -24 -20 20 25 c42 53 68 79 76 74 5 -3 6 2 3 10 -8 20 139
136 251 198 110 60 333 151 354 143 8 -3 12 -2 7 2 -7 8 81 40 115 42 9 1 24
-9 35 -21z m3796 -28 c70 -24 125 -46 123 -49 -2 -3 7 -7 19 -7 31 -2 197 -83
276 -136 72 -47 237 -203 205 -194 -17 5 -18 4 -5 -6 8 -7 15 -17 15 -23 0 -5
15 -39 33 -74 32 -60 36 -81 13 -66 -6 3 -8 11 -5 17 4 6 3 8 -3 5 -6 -4 -28
8 -49 26 -156 131 -327 217 -574 289 -66 19 -105 34 -91 36 12 2 30 1 39 -3 9
-4 58 -8 107 -10 82 -4 168 -19 220 -41 17 -7 18 -6 7 8 -7 9 -26 21 -42 28
-16 7 -27 16 -24 21 3 5 2 8 -3 7 -17 -4 -53 14 -47 24 4 6 2 8 -3 5 -13 -8
-182 70 -201 93 -8 8 -11 10 -8 4 3 -6 -30 0 -74 15 -43 14 -77 27 -75 29 2 3
18 -1 36 -7 18 -6 44 -11 58 -10 23 0 24 1 6 9 -14 6 -15 9 -5 10 8 1 -9 10
-39 21 -30 10 -57 22 -60 26 -7 7 -14 10 151 -47z m-179 25 c-3 -9 -8 -14 -10
-11 -3 3 -2 9 2 15 9 16 15 13 8 -4z m-1712 -589 c5 3 9 0 9 -5 0 -8 7 -7 20
1 28 18 31 8 20 -53 -16 -82 -31 -259 -25 -280 4 -13 16 -19 35 -19 33 0 28
-16 56 177 15 106 17 110 34 95 17 -14 18 -27 13 -139 l-6 -123 39 0 c43 0
223 26 230 33 2 2 10 35 18 73 10 48 14 59 15 36 1 -19 5 -31 11 -27 6 3 10
-2 10 -12 1 -12 5 -8 14 12 13 29 13 28 8 -21 l-4 -51 72 13 c49 10 77 11 90
4 10 -6 29 -10 42 -11 37 -2 -274 -77 -437 -105 -315 -55 -611 -38 -1023 57
-77 17 -91 23 -81 35 9 11 6 16 -12 24 -22 10 -21 10 6 4 48 -9 139 -24 153
-24 6 0 12 11 12 25 0 14 4 25 10 25 5 0 7 -8 5 -17 -3 -10 2 -2 11 17 l17 35
11 -50 11 -50 110 -17 c61 -9 121 -17 134 -17 l24 -1 -6 138 c-3 75 -3 129 0
119 4 -17 6 -17 17 -1 14 18 20 -6 47 -178 11 -76 12 -78 40 -78 l29 0 0 78
c0 42 -5 106 -10 142 -22 142 -21 136 -9 117 10 -18 11 -18 25 0 13 17 13 17
14 -2 0 -11 4 -16 8 -10 7 11 23 14 115 22 33 3 57 10 58 16 0 8 2 8 6 -1 2
-6 9 -10 14 -6z m-750 -637 l59 -52 0 -328 0 -327 -62 -52 -61 -51 -163 3
-163 3 -56 55 -55 54 0 314 0 313 57 60 56 59 164 0 165 0 59 -51z m673 0 l56
-51 0 -168 c0 -93 -4 -170 -9 -172 -4 -1 -32 -24 -61 -51 l-52 -47 75 -154 75
-154 -105 -7 c-57 -4 -106 -5 -107 -4 -2 2 -31 58 -64 124 -34 66 -73 138 -86
160 l-25 40 -1 -156 c0 -117 -3 -158 -12 -160 -7 -2 -53 -4 -103 -4 l-90 0 -3
428 -2 427 229 0 229 0 56 -51z m669 -7 l57 -58 -2 -318 -3 -319 -59 -51 -58
-51 -221 0 -220 0 -4 428 -3 427 228 0 228 0 57 -58z m695 -34 l-3 -93 -162
-3 -163 -2 0 -75 0 -75 110 0 110 0 0 -84 0 -84 -92 -6 c-51 -3 -102 -5 -113
-4 -24 4 -30 -23 -20 -99 l6 -53 165 0 164 0 0 -89 0 -88 -82 -6 c-46 -4 -167
-7 -270 -7 l-188 0 0 430 0 430 270 0 271 0 -3 -92z m388 -105 l89 -197 3 197
2 197 105 0 105 0 -2 -427 -3 -428 -100 3 c-55 2 -103 7 -106 10 -4 4 -44 89
-90 190 l-84 183 -5 -193 -5 -193 -96 -3 -97 -3 -4 81 c-2 45 -2 239 1 431 l3
349 97 0 98 0 89 -197z m-3189 -145 l33 -32 0 -238 0 -238 -60 0 -60 0 0 80 0
80 -45 0 c-29 0 -45 -5 -46 -12 -1 -7 -2 -17 -4 -23 -1 -5 -3 -36 -3 -67 l-2
-58 -55 0 -55 0 0 231 0 232 33 37 32 38 100 1 c98 1 99 1 132 -31z m-537
-183 l0 -205 59 0 c32 0 73 -3 90 -6 30 -6 31 -8 31 -60 l0 -54 -145 0 -145 0
0 265 0 265 55 0 55 0 0 -205z m432 -502 l67 -58 0 -438 1 -438 -307 -315
c-168 -173 -308 -314 -310 -314 -1 0 -3 336 -3 747 l0 746 63 64 64 63 179 0
180 0 66 -57z m758 -48 l0 -105 -182 -2 c-208 -3 -195 3 -183 -94 l6 -54 132
0 131 0 53 -52 53 -52 0 -172 0 -172 -64 -56 -64 -56 -230 0 -230 0 -7 94 c-4
52 -4 99 -1 105 5 7 70 11 192 11 l184 0 0 75 0 75 -132 0 -132 0 -58 57 -58
57 0 164 0 165 63 58 62 58 233 1 232 0 0 -105z m670 0 l0 -105 -170 0 -170 0
0 -250 0 -250 170 0 170 0 0 -105 0 -105 -216 0 -216 0 -64 56 -64 56 0 344 0
345 63 59 62 59 218 1 217 0 0 -105z m322 -247 l3 -353 83 -3 82 -3 0 356 0
356 113 -3 112 -3 3 -395 2 -395 -66 -62 -67 -63 -179 0 -180 0 -64 62 -64 61
0 399 0 398 110 0 110 0 2 -352z m1060 295 l57 -58 1 -177 2 -176 -44 -40
c-23 -22 -54 -48 -66 -59 l-24 -19 81 -161 c45 -89 81 -165 81 -168 0 -3 -52
-4 -117 -3 l-116 3 -86 162 c-47 89 -89 165 -93 169 -5 4 -8 -70 -8 -164 l0
-172 -109 0 -109 0 -4 28 c-2 15 -2 222 0 460 l4 432 247 0 247 0 56 -57z
m785 -763 l2 -815 -109 115 -109 115 -1 186 c0 102 -3 268 -7 367 l-6 182 -84
0 -83 0 0 -267 -1 -268 -114 119 -115 118 0 420 0 420 62 64 61 64 251 -2 251
-3 2 -815z"/>
<path d="M4416 7641 c-12 -13 -14 -21 -6 -26 6 -4 9 -1 8 7 -2 7 2 12 8 11 6
-1 11 5 11 13 0 18 0 18 -21 -5z"/>
<path d="M4474 7566 c-3 -9 -11 -13 -17 -9 -5 3 -7 1 -3 -5 3 -6 2 -13 -4 -17
-5 -3 -14 -14 -19 -24 -8 -13 -6 -18 6 -18 8 0 20 13 25 29 6 15 14 26 18 23
4 -3 10 2 14 10 3 8 1 17 -5 20 -5 4 -12 -1 -15 -9z"/>
<path d="M5750 7175 c6 -8 18 -11 26 -8 18 7 13 12 -16 18 -18 3 -20 2 -10
-10z"/>
<path d="M4794 7102 c3 -5 0 -13 -6 -15 -9 -4 -10 -6 -1 -6 17 -1 25 16 12 25
-7 4 -9 3 -5 -4z"/>
<path d="M5515 7100 c-3 -5 -1 -10 4 -10 6 0 11 5 11 10 0 6 -2 10 -4 10 -3 0
-8 -4 -11 -10z"/>
<path d="M4520 7061 c0 -7 -4 -10 -9 -6 -5 3 -12 2 -15 -3 -7 -12 52 -8 61 4
5 5 4 6 -1 2 -5 -4 -15 -3 -23 3 -10 9 -13 8 -13 0z"/>
<path d="M4564 7005 c0 -13 4 -21 8 -19 5 3 6 10 3 15 -3 5 8 7 24 5 19 -2 35
2 43 12 11 13 11 14 -2 7 -18 -12 -40 -13 -60 -3 -12 5 -16 1 -16 -17z"/>
<path d="M4390 6900 c0 -5 5 -10 11 -10 5 0 7 5 4 10 -3 6 -8 10 -11 10 -2 0
-4 -4 -4 -10z"/>
<path d="M4330 6768 c0 -5 -4 -7 -9 -3 -11 6 -21 -6 -26 -36 -3 -12 -11 -29
-20 -39 -8 -9 -15 -21 -15 -26 0 -14 49 49 50 64 0 7 3 11 8 9 4 -3 15 5 24
17 13 18 14 23 2 23 -8 0 -14 -4 -14 -9z"/>
<path d="M2816 6923 c10 -16 106 -174 214 -353 239 -395 248 -410 258 -409 6
0 461 755 470 780 2 5 -187 9 -478 9 l-482 0 18 -27z"/>
<path d="M2493 4885 c0 -8 4 -12 9 -9 5 3 6 10 3 15 -9 13 -12 11 -12 -6z"/>
<path d="M6480 6945 c0 -2 15 -28 33 -57 19 -29 125 -205 236 -390 112 -186
207 -338 211 -338 6 0 402 649 468 767 l13 23 -481 0 c-264 0 -480 -2 -480 -5z"/>
<path d="M5776 6956 c4 -10 1 -21 -7 -26 -11 -7 -10 -13 6 -29 21 -24 35 -20
15 4 -8 10 -9 15 -1 15 15 0 14 13 -4 36 -14 17 -15 18 -9 0z"/>
<path d="M5288 6653 c-10 -2 -18 -9 -18 -14 0 -14 16 -11 30 6 7 8 11 14 9 14
-2 -1 -12 -3 -21 -6z"/>
<path d="M5538 6263 c6 -2 18 -2 25 0 6 3 1 5 -13 5 -14 0 -19 -2 -12 -5z"/>
<path d="M4890 6239 c0 -6 -8 -9 -18 -7 -11 3 -19 0 -19 -8 0 -19 11 -17 38 6
13 10 18 19 12 20 -7 0 -13 -5 -13 -11z"/>
<path d="M4670 6206 c0 -2 7 -7 16 -10 8 -3 12 -2 9 4 -6 10 -25 14 -25 6z"/>
<path d="M4556 6141 c-3 -5 0 -14 8 -20 10 -8 16 -8 25 3 9 11 8 15 -5 20 -20
8 -22 8 -28 -3z"/>
<path d="M5546 6161 c-3 -5 1 -12 10 -15 27 -11 37 -7 24 9 -14 17 -26 19 -34
6z"/>
<path d="M4456 6097 c3 -10 9 -15 12 -12 3 3 0 11 -7 18 -10 9 -11 8 -5 -6z"/>
<path d="M4938 6113 c7 -3 16 -2 19 1 4 3 -2 6 -13 5 -11 0 -14 -3 -6 -6z"/>
<path d="M5299 6103 c-13 -15 -12 -15 8 -5 14 8 24 9 28 2 3 -5 11 -10 18 -10
11 0 -22 29 -34 30 -4 0 -13 -7 -20 -17z"/>
<path d="M5398 6053 c7 -3 16 -2 19 1 4 3 -2 6 -13 5 -11 0 -14 -3 -6 -6z"/>
<path d="M4977 5936 c-4 -10 -1 -13 8 -9 8 3 12 9 9 14 -7 12 -11 11 -17 -5z"/>
<path d="M4966 5894 c-5 -14 -4 -15 9 -4 17 14 19 20 6 20 -5 0 -12 -7 -15
-16z"/>
<path d="M5111 5614 c0 -11 3 -14 6 -6 3 7 2 16 -1 19 -3 4 -6 -2 -5 -13z"/>
<path d="M5131 5560 c-3 -42 -4 -43 -11 -15 -7 27 -8 26 -7 -12 0 -33 4 -43
16 -43 13 0 13 2 2 9 -9 6 -10 10 -1 13 7 2 10 20 7 48 l-4 45 -2 -45z"/>
<path d="M5110 5476 c0 -2 7 -6 15 -10 8 -3 15 -1 15 4 0 6 -7 10 -15 10 -8 0
-15 -2 -15 -4z"/>
<path d="M5035 5460 c-3 -6 1 -7 9 -4 18 7 21 14 7 14 -6 0 -13 -4 -16 -10z"/>
<path d="M5300 5449 c0 -5 5 -7 10 -4 6 3 10 8 10 11 0 2 -4 4 -10 4 -5 0 -10
-5 -10 -11z"/>
<path d="M5466 5447 c3 -10 9 -15 12 -12 3 3 0 11 -7 18 -10 9 -11 8 -5 -6z"/>
<path d="M6766 5702 c-3 -5 1 -9 9 -9 8 0 12 4 9 9 -3 4 -7 8 -9 8 -2 0 -6 -4
-9 -8z"/>
<path d="M6896 5395 c-3 -9 -6 -24 -5 -33 0 -9 5 -4 10 12 9 32 6 48 -5 21z"/>
<path d="M6886 5278 c-3 -13 -2 -26 2 -30 4 -4 8 6 9 23 3 35 -2 38 -11 7z"/>
<path d="M3195 5020 c3 -5 8 -10 11 -10 2 0 4 5 4 10 0 6 -5 10 -11 10 -5 0
-7 -4 -4 -10z"/>
<path d="M7135 5000 c-3 -5 -1 -10 4 -10 6 0 11 5 11 10 0 6 -2 10 -4 10 -3 0
-8 -4 -11 -10z"/>
<path d="M7160 4986 c0 -2 11 -6 25 -8 13 -3 22 -1 19 3 -5 9 -44 13 -44 5z"/>
<path d="M7260 4950 c8 -5 20 -10 25 -10 6 0 3 5 -5 10 -8 5 -19 10 -25 10 -5
0 -3 -5 5 -10z"/>
<path d="M7310 4933 c8 -3 24 -10 35 -15 20 -9 20 -9 1 6 -11 9 -27 16 -35 15
-14 0 -14 -1 -1 -6z"/>
<path d="M7349 4883 c-13 -16 -12 -17 4 -4 16 13 21 21 13 21 -2 0 -10 -8 -17
-17z"/>
<path d="M4180 3450 l0 -240 75 0 75 0 0 240 0 240 -75 0 -75 0 0 -240z"/>
<path d="M4840 3611 l0 -79 76 -4 c42 -2 78 -1 80 1 2 2 4 40 4 83 l0 78 -80
0 -80 0 0 -79z"/>
<path d="M5510 3450 l0 -240 80 0 80 0 0 240 0 240 -80 0 -80 0 0 -240z"/>
<path d="M3530 3376 l0 -76 45 0 46 0 -3 73 -3 72 -42 3 -43 3 0 -75z"/>
<path d="M3270 2253 l1 -448 89 95 89 95 1 353 0 352 -90 0 -90 0 0 -447z"/>
<path d="M6080 2616 l0 -83 31 -7 c17 -3 56 -6 85 -6 l54 0 0 90 0 90 -85 0
-85 0 0 -84z"/>
<path d="M6800 2570 l0 -130 85 0 c50 0 85 4 85 10 1 6 1 60 1 120 0 61 0 115
-1 120 0 6 -35 10 -85 10 l-85 0 0 -130z"/>
</g>
</svg>
